PathFileType	4	(X/Y/Z)	T1_P2_Vision_NoMovement_1_0-732.trc
DataRate	CameraRate	NumFrames	NumMarkers	Units	OrigDataRate	OrigDataStartFrame	OrigNumFrames
60	60	7	27	m	60	0	732
Frame#	Time	RHip			RKnee			RAnkle			RBigToe			RSmallToe			RHeel			LHip			LKnee			LAnkle			LBigToe			LSmallToe			LHeel			Neck			Head			Nose			RShoulder			RElbow			RWrist			RThumb			RIndex			RPinky			LShoulder			LElbow			LWrist			LThumb			LIndex			LPinky		
		X1	Y1	Z1	X2	Y2	Z2	X3	Y3	Z3	X4	Y4	Z4	X5	Y5	Z5	X6	Y6	Z6	X7	Y7	Z7	X8	Y8	Z8	X9	Y9	Z9	X10	Y10	Z10	X11	Y11	Z11	X12	Y12	Z12	X13	Y13	Z13	X14	Y14	Z14	X15	Y15	Z15	X16	Y16	Z16	X17	Y17	Z17	X18	Y18	Z18	X19	Y19	Z19	X20	Y20	Z20	X21	Y21	Z21	X22	Y22	Z22	X23	Y23	Z23	X24	Y24	Z24	X25	Y25	Z25	X26	Y26	Z26	X27	Y27	Z27
1	0.0166666666666666	443.4582867837088	3662.8571246351207	646.5793794009679	817.161069935079	3672.6771669398513	634.6495834785552	1201.9902365314506	3693.1531431535445	648.5221483307379	1287.262523330482	3621.7389216950687	643.8496369979111	1289.1613130614435	3684.8322398675828	603.55612248434	1290.5278234403984	3796.1021092457654	739.0391379124734	455.32609691777685	3599.7599346420457	851.8428770363937	833.3530296929705	3584.651073289443	849.7956670116897	1249.4339138685452	3690.170735795457	867.4694416542152	1319.2031021879648	3560.983374686568	809.773581556305	1296.4899222836502	3535.2394083070394	844.883574984608	1267.0632018971505	3702.6060363600773	855.5221307115246	-109.42411504438799	3598.6483203487905	759.45818429662	-370.69404214187244	3480.121474536908	738.0074367192128	-204.2924043923931	3453.434045719821	721.512793694551	-40.04217686953965	3721.7664634195926	636.1114356615068	198.22173422726047	3646.7551973425007	525.1539875219908	356.90390206642655	3514.097620764555	625.4548466647423	427.22637892584487	3400.857678682405	705.5908759062453	441.8342863399049	3416.536534208675	708.0998234989725	482.76720471086566	3479.427624365163	707.2692493746084	-33.306580276087516	3551.2786528168413	920.5927432092848	211.74049331284476	3485.764929004448	919.3826548555962	343.23173563713533	3365.0883685938284	697.0966923746719	402.2464144351788	3409.7837961041787	621.6802548110605	433.96535676450776	3404.0315227712513	610.7952887124612	463.6953308631751	3448.4534461533467	691.0545191490207
2	0.0333333333333333	442.7000010404339	3658.9504436079706	643.3198373787236	820.704170585235	3676.508181912582	636.2847171452668	1206.855401877158	3715.442340576509	658.7183453929981	1288.3910160386495	3630.022483300808	645.9840917658684	1288.9165538762204	3685.039928983677	603.7086631965768	1289.5702358772555	3810.4930509471355	744.2045438486211	455.75915597820983	3602.3097029543455	852.7988525882988	840.3185992492215	3595.5222202613386	853.538808268851	1246.021720735611	3688.996874858722	866.4598519044737	1309.8901848497335	3553.1991058310746	802.9941850915595	1293.3174916506032	3533.027474303968	846.8294331402182	1263.604436404558	3701.412221802554	854.540381799714	-106.59682278899882	3610.986775507457	766.766426044461	-370.77765375791193	3480.3292759321894	738.1550710958744	-207.0066244632087	3450.537702055261	720.7595020815419	-40.04736232781679	3721.900556594491	636.2429012755218	199.82034217541076	3651.7437345665376	529.5221990146856	356.9110904444649	3514.1817122487514	625.4862233755314	430.65840245145523	3425.911937299292	717.8148268831216	443.6467664221419	3431.117498859151	713.3967776485395	484.66944000757917	3485.559911102435	713.4562767908691	-32.510661287376024	3564.141214544575	924.9320980835412	214.9772557811061	3484.944827110464	918.7523683083629	341.6146348614181	3368.586621833564	697.7838086494501	403.4652496665048	3409.2588494431175	620.0665178272303	436.34752740313945	3408.1146176254915	613.2018940296687	460.28054877833057	3446.437802944352	690.1359052447783
3	0.05	442.66460535465274	3658.7620465311466	643.0956793384125	823.5381321610705	3683.014268192208	638.4270475440965	1209.6878622104073	3729.59175628508	665.6203372675286	1289.1296031006095	3635.5030584806354	647.3819235037793	1288.7972043596117	3685.1845109548394	603.8103399949373	1288.575330654951	3818.9432904299956	747.3757705387784	456.85632213345735	3609.0116936328404	855.7839092841325	843.3920575224148	3598.373403685352	854.6506953117625	1243.9510413566993	3688.228745794424	865.8210977562729	1305.1566408830686	3549.0372824421966	799.049585283902	1291.4202427061812	3531.7547261379823	848.0001745520306	1261.3818708099552	3700.528809637076	853.8655652830371	-104.82943771286489	3621.8883206316527	773.4233903352772	-370.87123129551804	3480.4466713754236	738.2604315918024	-208.60553952208295	3448.395993227599	721.1239780842964	-40.03844971601774	3722.003379218423	636.3681744724275	200.54892152606794	3657.3328534225807	534.0772069497733	356.9283580043906	3514.211826136423	625.5034335151847	432.8813323294859	3442.3388025578765	725.8349938650184	445.26956037422224	3442.40201535099	719.1016643523747	485.7124523206861	3488.391557241734	716.2334889655891	-31.591807235381	3571.777792921715	927.4328074153261	216.4849581725286	3484.7008627906866	918.5326316483907	340.7711879524006	3369.7139139567685	697.91637792409	404.6404681174857	3408.2851575480536	618.8796632264766	437.9547283700527	3410.988348469134	615.2875559837117	458.2168365904239	3445.2011215496127	689.5719182827704
4	0.0666666666666666	443.1208577546734	3661.119456206239	644.9544459077126	825.5747893666172	3690.9464518541404	640.6350665708405	1210.666856586142	3735.4990850614554	669.3912943358365	1288.5003206337726	3635.01018790071	647.1563033009303	1288.7533547736498	3685.2596780861995	603.8784080732645	1287.6027959975652	3821.0564603121857	748.15641689275	458.4742791383109	3618.8672235294475	860.367293836372	842.4501455178704	3593.962776790841	853.4255039153996	1243.3185335502785	3687.92439396922	865.5936862661622	1304.7806852124165	3548.4205967481066	798.010574977651	1290.8077768300795	3531.7084526534636	848.2762472061029	1260.5157290534175	3700.0501247898615	853.5611278773366	-104.25064049007437	3629.4561431771563	777.9794880803081	-370.83286465404467	3480.3664661727566	738.2706129558026	-208.88622246753337	3447.2978020371297	722.5158644383941	-40.01197857573952	3722.069349200903	636.4779676612254	200.50169123407642	3661.791362634057	537.5082937150218	356.9526646751983	3514.208139458581	625.506163938752	433.6019187806803	3447.1191536926135	728.6474823632831	446.65028103458855	3449.2419195895436	724.4338496463478	486.05697404245603	3488.7305783697484	716.0440303381936	-30.858919899367763	3573.9936279936837	928.0653324116778	216.67182673325277	3485.6124924458445	919.0456675665798	340.69997050173265	3370.065567166035	698.0014227786859	405.5078362103845	3407.1004900008747	618.5503753452931	438.18461572431966	3410.6148675209483	615.5785046466783	457.675963653679	3444.810322724221	689.5602044805405
5	0.0833333333333333	443.49395885954846	3663.073225091959	646.4986437616575	826.716819705532	3696.815670133992	642.1455303348658	1211.093740446045	3736.822485896753	670.9612901357409	1286.9883380317071	3629.572911614817	645.679456184416	1288.6318229021529	3685.411256890696	603.9957348048863	1287.0461842514549	3820.2807771319676	747.0124268968704	459.67366394426784	3626.1180475729325	863.4424233892646	840.3579411754331	3588.9095830610645	851.9989473307041	1243.3749513721973	3687.8872683598	865.5761017260052	1305.6977867954854	3549.0611182551615	798.2164447167814	1290.5992513314347	3532.7631822564877	847.969895321146	1260.6187239674848	3700.170045017192	853.6335948261913	-104.30359205246114	3632.0223787866566	779.3146278917022	-370.3156149545936	3479.8733903641996	738.0613366943022	-208.27885579625556	3447.1905996182554	723.9766616038412	-39.98214853378241	3722.198413382898	636.5878770086815	200.25833219103112	3663.7414898082234	538.9299871597841	356.9745456438681	3514.2397653813578	625.5096026006669	433.5381619511297	3443.7080302997806	727.6583723930742	447.79982784386425	3452.0902577818174	727.5690869165521	486.09815066254083	3488.4652946355054	714.4522669609573	-30.59179832413161	3573.233878591807	927.7086058417976	217.14693363081938	3487.477891724623	920.09030511422	341.094654497122	3371.607411359367	698.5632855677503	406.1292848318871	3406.4808492672655	619.2046837171287	437.82510257214886	3407.1373230115196	613.72165777299	458.0596145778021	3444.9723927074597	690.256484388537
6	0.1	443.6057169165834	3663.732236842297	647.0003630185969	826.5851027432775	3699.1911313464084	643.0121248246281	1211.524679135186	3735.276053973528	670.0194256059076	1286.1473535480218	3624.101292687982	644.3338166270439	1288.3383726383881	3685.9037355665046	604.2683976197544	1286.9682165319712	3818.9302513078965	744.1951684740985	459.8149136116637	3626.9011050038816	862.8808313774188	839.4276094513756	3587.690371451651	851.8181887236897	1243.5604715051013	3687.947424657474	865.6040438883545	1306.5571798454544	3549.9153565227134	798.7870312089447	1290.164613613497	3534.591156308009	847.4095732165817	1261.9350424245774	3701.4676627989083	854.2892693223027	-104.47706518172555	3628.0820184888457	777.1316304823877	-369.0660417746313	3478.8151095976837	737.5373077041902	-207.3865118039285	3447.6757826922867	724.8299120881042	-39.96528397690192	3722.559439831714	636.7376965905636	200.1365382439976	3663.933612279248	539.0215489577588	357.00283621125857	3514.3186490918224	625.5226627917367	433.7044932290905	3439.2466701815247	724.8843205848797	448.70624342421115	3452.526716898578	727.4118139588546	485.689479358122	3486.930866869773	711.2095877352187	-30.458625466992473	3570.050822522146	926.5546880872777	218.36430714457322	3489.3431086755054	921.0791151748869	342.15987005620525	3374.661731435879	699.6760750194336	406.9988010840269	3407.2467491763423	621.2024983077364	438.5070489957449	3404.598369150772	612.3199153486147	458.8588736226578	3445.5609123056765	691.5337580194532
7	0.1166666666666666	443.5676663902382	3663.707664472585	646.9456795869326	825.2643549300657	3698.5059246767896	643.632890879059	1211.5972543454009	3731.4713694419056	666.7435251197999	1286.263386594534	3621.5284911359495	643.7248199052412	1287.972114440321	3686.6778317572766	604.6522525721072	1286.8739040074477	3817.2501066965	740.8296627942148	459.1593501574896	3622.7081373887504	860.0068110229981	839.7843049015569	3589.8254996249148	852.8482345845723	1243.8579977135823	3688.079065363435	865.6724451465102	1307.9730081617245	3551.486599899668	800.2519395044702	1289.6532171928047	3536.2895618047196	846.9582547920625	1265.012687935539	3704.089532241133	855.5747290659142	-104.5907646741616	3619.377336717364	772.7934905468375	-367.4322324227232	3477.5384309002106	736.8730823131139	-206.9662244360869	3447.936734365497	724.9650322995504	-39.96458708119934	3723.0908259456933	636.9067204933173	200.14970862636693	3663.633888720825	538.7743289699418	357.0604939813233	3514.3332621206328	625.5188932037689	434.37554529964234	3439.582705048215	722.5103547913374	449.12746542861856	3452.813450163502	724.7045492989705	484.8710848816186	3483.589082687627	706.6925843505677	-29.68593600947233	3563.568174888312	924.38944339327	219.78570546268273	3490.6637178407145	921.7175864035189	343.8911460282685	3378.844288727727	701.1978295708931	408.00155546238	3409.443582578913	624.8250770065032	440.5158636334968	3407.798466736791	614.4681085972086	459.8618510196089	3446.6268803261296	692.7110545071877
